<svg id="Capa_1" enable-background="new 0 0 512.031 512.031" height="512" viewBox="0 0 512.031 512.031" width="512" xmlns="http://www.w3.org/2000/svg" xmlns:xlink="http://www.w3.org/1999/xlink"><linearGradient id="SVGID_1_" gradientUnits="userSpaceOnUse" x1="256.016" x2="256.016" y1="512.031" y2="0"><stop offset="0" stop-color="#5558ff"/><stop offset="1" stop-color="#00c0ff"/></linearGradient><g><g><path d="m181.769 60.69c40.939-40.939 107.554-40.939 148.493 0 5.857 5.857 15.355 5.858 21.213 0s5.858-15.355 0-21.213c-52.637-52.637-138.282-52.637-190.919 0-5.858 5.858-5.858 15.355 0 21.213 5.858 5.859 15.356 5.859 21.213 0zm284.247 121.341h-195v-47c0-8.284-6.716-15-15-15s-15 6.716-15 15v47h-195c-8.284 0-15 6.716-15 15s6.716 15 15 15h20.225c16.164 68.248 69.005 125.199 141.031 143.795l-22.343 67.03c-31.182 4.641-56.161 28.539-62.404 59.175h-16.509c-8.284 0-15 6.716-15 15s6.716 15 15 15h300c8.284 0 15-6.716 15-15s-6.716-15-15-15h-16.509c-6.244-30.636-31.223-54.534-62.404-59.175l-22.343-67.03c72.067-18.606 124.876-75.583 141.031-143.795h20.225c8.284 0 15-6.716 15-15s-6.716-15-15-15zm-150.102 270c.033 0 .066.004.099.004.02 0 .041-.002.061-.002 19.529.025 36.175 12.558 42.361 29.999h-204.839c6.186-17.441 22.832-29.973 42.361-29.999.02 0 .041.002.061.002.033 0 .066-.004.099-.004zm-99.087-30 20.309-60.928c6.253.608 12.552.928 18.879.928s12.626-.319 18.879-.928l20.309 60.928zm39.189-90c-74.871 0-139.045-49.5-158.808-120h317.617c-19.764 70.5-83.938 120-158.809 120zm-53.033-250.127c-5.858 5.858-5.858 15.355 0 21.213 5.857 5.858 15.355 5.858 21.213 0 17.546-17.545 46.094-17.545 63.64 0 5.857 5.857 15.355 5.858 21.213 0s5.858-15.355 0-21.213c-29.243-29.243-76.824-29.243-106.066 0z" fill="url(#SVGID_1_)"/></g></g></svg>