<svg id="Capa_1" enable-background="new 0 0 512 512" height="512" viewBox="0 0 512 512" width="512" xmlns="http://www.w3.org/2000/svg" xmlns:xlink="http://www.w3.org/1999/xlink"><linearGradient id="SVGID_1_" gradientUnits="userSpaceOnUse" x1="256" x2="256" y1="512" y2="0"><stop offset="0" stop-color="#a93aff"/><stop offset="1" stop-color="#ff81ff"/></linearGradient><g><g><path d="m195 90c-8.284 0-15 6.716-15 15v83.787l-55.606 55.606c-5.858 5.858-5.858 15.355 0 21.213 2.928 2.93 6.767 4.394 10.606 4.394s7.678-1.464 10.606-4.394l59.997-59.998c2.845-2.84 4.397-6.767 4.397-10.608v-90c0-8.284-6.716-15-15-15zm189.216 152.194c3.836-15.368 5.784-31.172 5.784-47.194 0-107.523-87.477-195-195-195s-195 87.477-195 195 87.477 195 195 195c16.022 0 31.826-1.948 47.194-5.784 3.763 71.098 62.787 127.784 134.806 127.784 74.439 0 135-60.561 135-135 0-72.019-56.686-131.043-127.784-134.806zm-189.216 117.806c-90.981 0-165-74.019-165-165s74.019-165 165-165 165 74.019 165 165c0 16.822-2.525 33.353-7.502 49.234-54.833 10.095-98.168 53.43-108.263 108.263-15.882 4.978-32.413 7.503-49.235 7.503zm182 122c-57.897 0-105-47.103-105-105s47.103-105 105-105 105 47.103 105 105-47.103 105-105 105zm41.069-146.077-56.069 56.068-33.831-33.831c-5.857-5.858-15.355-5.858-21.213 0s-5.858 15.355 0 21.213l44.438 44.438c2.929 2.929 6.768 4.394 10.606 4.394s7.678-1.465 10.606-4.394l66.676-66.675c5.858-5.857 5.858-15.355 0-21.213-5.857-5.858-15.355-5.859-21.213 0z" fill="url(#SVGID_1_)"/></g></g></svg>