<svg id="Capa_1" enable-background="new 0 0 512 512" height="512" viewBox="0 0 512 512" width="512" xmlns="http://www.w3.org/2000/svg" xmlns:xlink="http://www.w3.org/1999/xlink"><linearGradient id="SVGID_1_" gradientUnits="userSpaceOnUse" x1="256" x2="256" y1="511.969" y2=".032"><stop offset="0" stop-color="#5558ff"/><stop offset="1" stop-color="#00c0ff"/></linearGradient><g><g><path d="m330.247 451.278c-40.939 40.939-107.554 40.939-148.493 0-5.857-5.858-15.355-5.858-21.213 0s-5.858 15.355 0 21.213c26.318 26.318 60.889 39.478 95.459 39.478s69.141-13.159 95.459-39.478c5.858-5.858 5.858-15.355 0-21.213-5.857-5.858-15.355-5.858-21.212 0zm-21.214-21.214c5.857-5.858 5.857-15.355 0-21.213-5.857-5.857-15.355-5.858-21.213 0-8.483 8.483-19.784 13.156-31.819 13.156s-23.336-4.672-31.819-13.156c-5.859-5.858-15.355-5.857-21.213 0-5.858 5.858-5.858 15.355 0 21.213 14.15 14.15 32.984 21.943 53.033 21.943s38.881-7.793 53.031-21.943zm187.967-399.033h-120c-8.284 0-15 6.716-15 15v45h-31v-76c0-8.284-6.716-15-15-15h-120c-8.284 0-15 6.716-15 15v76h-31v-45c0-8.284-6.716-15-15-15h-120c-8.284 0-15 6.716-15 15v120c0 8.284 6.716 15 15 15h120c8.284 0 15-6.716 15-15v-45h31v45c0 8.284 6.716 15 15 15h45v31.076c-45.916 6.597-82.327 43.008-88.924 88.924h-16.076c-8.284 0-15 6.716-15 15s6.716 15 15 15h105v46c0 8.284 6.716 15 15 15s15-6.716 15-15v-46h105c8.284 0 15-6.716 15-15s-6.716-15-15-15h-16.076c-6.597-45.916-43.008-82.327-88.924-88.924v-31.076h45c8.284 0 15-6.716 15-15v-45h31v45c0 8.284 6.716 15 15 15h120c8.284 0 15-6.716 15-15v-120c0-8.284-6.716-15-15-15zm-437 120h-30v-90h30zm60 0h-30v-90h30zm209.491 150h-146.982c6.968-34.192 37.272-60 73.491-60s66.522 25.809 73.491 60zm-28.491-150h-90v-121h90zm121 0h-30v-90h30zm60 0h-30v-90h30z" fill="url(#SVGID_1_)"/></g></g></svg>